<svg width="70" height="43" viewBox="0 0 70 43" fill="none" xmlns="http://www.w3.org/2000/svg">
<path fill-rule="evenodd" clip-rule="evenodd" d="M0.882324 21.7594V17.0176L5.88232 14.7761V19.5179L0.882324 21.7594Z" fill="#6580E1"/>
<path fill-rule="evenodd" clip-rule="evenodd" d="M0.882324 17.0177L21.0764 9.62962L26.0764 7.38818L5.88232 14.7762L0.882324 17.0177Z" fill="#6580E1"/>
<path fill-rule="evenodd" clip-rule="evenodd" d="M21.0764 9.62962V15.4745L26.0764 13.2331V7.38818L21.0764 9.62962Z" fill="#6580E1"/>
<path fill-rule="evenodd" clip-rule="evenodd" d="M21.0765 15.4743L6.72809 20.1961L11.7281 17.9546L26.0765 13.2329L21.0765 15.4743Z" fill="#6580E1"/>
<path fill-rule="evenodd" clip-rule="evenodd" d="M6.72809 20.1961L6.89047 19.9075L11.8905 17.666L11.7281 17.9546L6.72809 20.1961Z" fill="#6580E1"/>
<path fill-rule="evenodd" clip-rule="evenodd" d="M6.89044 19.9075V20.6648L11.8904 18.4234V17.666L6.89044 19.9075Z" fill="#6580E1"/>
<path fill-rule="evenodd" clip-rule="evenodd" d="M6.89047 20.665L6.72809 20.3279L11.7281 18.0864L11.8905 18.4236L6.89047 20.665Z" fill="#6580E1"/>
<path fill-rule="evenodd" clip-rule="evenodd" d="M6.72809 20.3279L21.0765 29.3377L26.0765 27.0963L11.7281 18.0864L6.72809 20.3279Z" fill="#6580E1"/>
<path fill-rule="evenodd" clip-rule="evenodd" d="M21.0764 29.3376V35.1825L26.0764 32.9411V27.0962L21.0764 29.3376Z" fill="#6580E1"/>
<path fill-rule="evenodd" clip-rule="evenodd" d="M21.0764 35.1825L0.882324 21.7593L5.88232 19.5178L26.0764 32.941L21.0764 35.1825Z" fill="#6580E1"/>
<path fill-rule="evenodd" clip-rule="evenodd" d="M0.882324 21.7593L5.88232 19.5178L0.882324 21.7593Z" fill="#6580E1"/>
<path fill-rule="evenodd" clip-rule="evenodd" d="M40.0565 3.32762L30.3137 42.2431L35.3137 40.0017L45.0565 1.08618L40.0565 3.32762Z" fill="#6580E1"/>
<path fill-rule="evenodd" clip-rule="evenodd" d="M30.3136 42.2432L25.6342 41.5439L30.6342 39.3025L35.3136 40.0017L30.3136 42.2432Z" fill="#6580E1"/>
<path fill-rule="evenodd" clip-rule="evenodd" d="M25.6342 41.5439L35.3769 2.6284L40.3769 0.386963L30.6342 39.3025L25.6342 41.5439Z" fill="#6580E1"/>
<path fill-rule="evenodd" clip-rule="evenodd" d="M35.377 2.6284L40.0564 3.32765L45.0564 1.08621L40.377 0.386963L35.377 2.6284Z" fill="#6580E1"/>
<path fill-rule="evenodd" clip-rule="evenodd" d="M40.0564 3.32762L45.0564 1.08618L40.0564 3.32762Z" fill="#6580E1"/>
<path fill-rule="evenodd" clip-rule="evenodd" d="M64.7972 31.31L44.603 38.6981L49.603 36.4566L69.7972 29.0686L64.7972 31.31Z" fill="#6580E1"/>
<path fill-rule="evenodd" clip-rule="evenodd" d="M44.603 38.6982V32.8533L49.603 30.6118V36.4567L44.603 38.6982Z" fill="#6580E1"/>
<path fill-rule="evenodd" clip-rule="evenodd" d="M44.603 32.8533L58.9515 28.1316L63.9515 25.8901L49.603 30.6119L44.603 32.8533Z" fill="#6580E1"/>
<path fill-rule="evenodd" clip-rule="evenodd" d="M58.9516 28.1316L58.7892 28.4202L63.7892 26.1787L63.9516 25.8901L58.9516 28.1316Z" fill="#6580E1"/>
<path fill-rule="evenodd" clip-rule="evenodd" d="M58.7892 28.4202V27.6628L63.7892 25.4214V26.1788L58.7892 28.4202Z" fill="#6580E1"/>
<path fill-rule="evenodd" clip-rule="evenodd" d="M58.7892 27.6628L58.9516 28L63.9516 25.7585L63.7892 25.4214L58.7892 27.6628Z" fill="#6580E1"/>
<path fill-rule="evenodd" clip-rule="evenodd" d="M58.9515 27.9999L44.603 18.99L49.603 16.7485L63.9515 25.7584L58.9515 27.9999Z" fill="#6580E1"/>
<path fill-rule="evenodd" clip-rule="evenodd" d="M44.603 18.9899V13.145L49.603 10.9036V16.7485L44.603 18.9899Z" fill="#6580E1"/>
<path fill-rule="evenodd" clip-rule="evenodd" d="M44.603 13.145L64.7972 26.5682L69.7972 24.3268L49.603 10.9036L44.603 13.145Z" fill="#6580E1"/>
<path fill-rule="evenodd" clip-rule="evenodd" d="M64.7972 26.5683V31.3102L69.7972 29.0687V24.3269L64.7972 26.5683Z" fill="#6580E1"/>
<path fill-rule="evenodd" clip-rule="evenodd" d="M64.7972 31.31L69.7972 29.0686L64.7972 31.31Z" fill="#6580E1"/>
<path d="M0.882324 21.7593V17.0175L21.0764 9.62945V15.4744L6.72804 20.1961L6.89042 19.9075V20.6649L6.72804 20.3278L21.0764 29.3376V35.1825L0.882324 21.7593ZM40.0564 3.32767L30.3136 42.2432L25.6342 41.5439L35.3769 2.62842L40.0564 3.32767ZM64.7972 31.3101L44.6031 38.6981V32.8532L58.9515 28.1315L58.7892 28.4201V27.6627L58.9515 27.9998L44.6031 18.9899V13.145L64.7972 26.5682V31.3101Z" fill="#F252E2"/>
</svg>
